<svg xmlns="http://www.w3.org/2000/svg" viewBox="0 0 32 32" width="32" height="32">
  <defs>
    <linearGradient id="petal" x1="0%" y1="0%" x2="100%" y2="100%">
      <stop offset="0%" style="stop-color:#ffb3d9;stop-opacity:1" />
      <stop offset="100%" style="stop-color:#ff69b4;stop-opacity:1" />
    </linearGradient>
    <linearGradient id="center" x1="0%" y1="0%" x2="100%" y2="100%">
      <stop offset="0%" style="stop-color:#ffd700;stop-opacity:1" />
      <stop offset="100%" style="stop-color:#ffa500;stop-opacity:1" />
    </linearGradient>
  </defs>
  
  <!-- Cherry blossom petals -->
  <path d="M16 4 C18 6 20 8 18 12 C16 16 14 18 16 20 C18 22 20 24 18 28 C16 32 14 30 16 28 C18 26 20 24 18 20 C16 16 14 14 16 12 C18 10 20 8 18 4 Z" fill="url(#petal)" opacity="0.8"/>
  <path d="M16 4 C14 6 12 8 14 12 C16 16 18 18 16 20 C14 22 12 24 14 28 C16 32 18 30 16 28 C14 26 12 24 14 20 C16 16 18 14 16 12 C14 10 12 8 14 4 Z" fill="url(#petal)" opacity="0.8"/>
  <path d="M16 4 C18 6 20 8 18 12 C16 16 14 18 16 20 C18 22 20 24 18 28 C16 32 14 30 16 28 C18 26 20 24 18 20 C16 16 14 14 16 12 C18 10 20 8 18 4 Z" fill="url(#petal)" opacity="0.8" transform="rotate(45 16 16)"/>
  <path d="M16 4 C14 6 12 8 14 12 C16 16 18 18 16 20 C14 22 12 24 14 28 C16 32 18 30 16 28 C14 26 12 24 14 20 C16 16 18 14 16 12 C14 10 12 8 14 4 Z" fill="url(#petal)" opacity="0.8" transform="rotate(-45 16 16)"/>
  
  <!-- Center of the flower -->
  <circle cx="16" cy="16" r="3" fill="url(#center)"/>
</svg>
